<svg width="161" height="161" viewBox="0 0 161 161" fill="none" xmlns="http://www.w3.org/2000/svg">
<mask id="mask0_143_432" style="mask-type:alpha" maskUnits="userSpaceOnUse" x="0" y="0" width="161" height="161">
<rect x="0.197754" width="160.605" height="160.605" fill="#D9D9D9"/>
</mask>
<g mask="url(#mask0_143_432)">
<path d="M71.1306 111.085L118.308 63.9069L108.94 54.5383L71.1306 92.3474L52.0588 73.2755L42.6902 82.6441L71.1306 111.085ZM80.4993 147.221C71.2422 147.221 62.5427 145.464 54.401 141.951C46.2592 138.438 39.177 133.67 33.1543 127.647C27.1316 121.624 22.3636 114.542 18.8504 106.4C15.3372 98.2585 13.5806 89.5591 13.5806 80.302C13.5806 71.0449 15.3372 62.3455 18.8504 54.2037C22.3636 46.0619 27.1316 38.9797 33.1543 32.957C39.177 26.9343 46.2592 22.1664 54.401 18.6531C62.5427 15.1399 71.2422 13.3833 80.4993 13.3833C89.7563 13.3833 98.4558 15.1399 106.598 18.6531C114.739 22.1664 121.822 26.9343 127.844 32.957C133.867 38.9797 138.635 46.0619 142.148 54.2037C145.661 62.3455 147.418 71.0449 147.418 80.302C147.418 89.5591 145.661 98.2585 142.148 106.4C138.635 114.542 133.867 121.624 127.844 127.647C121.822 133.67 114.739 138.438 106.598 141.951C98.4558 145.464 89.7563 147.221 80.4993 147.221Z" fill="#FFC404"/>
</g>
</svg>
